<svg width="276" height="45" viewBox="0 0 276 45" fill="none" xmlns="http://www.w3.org/2000/svg">
    <rect y="42" width="274" height="3" fill="#3566AF"/>
    <path d="M246.182 9.65216L246.182 36.8537H255.249V9.65216H246.182Z" fill="white"/>
    <path d="M275.138 9.65216V36.8537H266.071L266.071 27.7865H257.004V18.7194H266.071L266.071 9.65216H275.138Z" fill="white"/>
    <path d="M244.866 31.2964L240.332 37L223.075 36.9986V18.1344H229.217V31.2964H244.866Z" fill="white"/>
    <path d="M223.075 9.65216L240.332 9.65217L244.866 16.3794H223.075V9.65216Z" fill="white"/>
    <path d="M199.383 36.9986V9.65216L216.64 9.65217L221.174 16.3794H205.526V31.2964H221.174L216.64 37L199.383 36.9986Z" fill="white"/>
    <path d="M211.668 26.9091L215.763 20.7668H206.403V26.9091H211.668Z" fill="white"/>
    <path d="M174.531 36.903V9.65078H165.455V0.584991H183.616V36.903H174.531ZM192.063 9.65078H185.411V0.584991H198.15L192.063 9.65078Z" fill="white"/>
    <path d="M148.929 30.7115L144.395 36.415H131.672L127.138 30.7115H140.154L127.138 16.6719H135.913L148.929 30.7115Z" fill="white"/>
    <path d="M131.672 9.0672H144.395L148.929 15.7945H127.138L131.672 9.0672Z" fill="white"/>
    <path d="M107.98 36.903V23.5455L97.3043 9.3597H105.64L111.938 17.8419L118.528 9.35968L126.571 9.3597L115.895 23.5455V36.903H107.98Z" fill="white"/>
    <path d="M74.4901 36.4136V9.0672L91.747 9.06721L96.2806 15.7945H80.6324V30.7115H96.2806L91.747 36.415L74.4901 36.4136Z" fill="white"/>
    <path d="M86.7747 26.3241L90.8696 20.1818H81.5099V26.3241H86.7747Z" fill="white"/>
    <path d="M67.3241 36.7075L58.4703 36.7061V27.6403H73.4103L67.3241 36.7075Z" fill="white"/>
    <path d="M47.581 36.7061V9.35968H52.1282H56.6753V36.7061H47.581Z" fill="white"/>
    <path d="M35.759 9.35968L35.7589 36.611H44.8439L44.844 9.35968H35.759Z" fill="white"/>
    <path d="M23.8604 36.318L16.769 25.396H12.0765V36.318H3V10.8671H12.0765V16.3513H23.0114V9.06579H3V0H27.5814C28.481 0 29.4609 0.527326 30.5126 1.57776C31.5642 2.62819 32.088 3.60269 32.088 4.50547V20.8905C32.0764 21.475 31.9458 22.051 31.7039 22.5834C31.4621 23.1158 31.1142 23.5934 30.6815 23.987C30.2879 24.4202 29.81 24.7686 29.2769 25.0109C28.7439 25.2531 28.1669 25.3842 27.5814 25.396L34.6264 36.318H23.8604Z" fill="white"/>
</svg>
