<svg width="116" height="125" viewBox="0 0 116 125" fill="none" xmlns="http://www.w3.org/2000/svg">
    <path d="M46.7608 54.1009H36.5082L46.7752 69.2452H60.8255V89.9711L67.3236 99.5625V65.6394H52.5368L46.7608 54.1009Z" fill="#3566AF"/>
    <path d="M107.034 0.504791V28.8606L112.81 33.1875V89.4375H107.034V36.0721L101.258 31.7452V0.504791H88.6661L95.4819 7.99037V45.4038L102.702 52.6154V98.0481L115.51 98.0769L115.019 32.5529V0.519214L107.034 0.504791Z" fill="#3566AF"/>
    <path d="M59.3814 87.8509V70.6875H47.7571L59.3814 87.8509Z" fill="#3566AF"/>
    <path d="M95.4819 105.245V55.6009L88.2618 48.3894V10.7884L78.9046 0.50478L36.8981 0.490356L48.8546 11.5673L78.1537 13.0384V34.6298H85.3738V49.4711L91.1498 55.2404V112.889L105.547 123.937L115.698 124.053L115.554 105.288L95.4819 105.245Z" fill="#3566AF"/>
    <path d="M10.3427 15.5048L12.7542 19.0529V5.78363H10.3427V15.5048Z" fill="#3566AF"/>
    <path d="M89.7491 113.596V55.9038L83.9731 50.1346V36.0577H76.753V14.4231L48.2481 12.9808L48.0604 12.8077L34.7754 0.475952H0.220093L7.44018 11.2356V2.88461H15.6278V23.3077L21.5771 32.1058L22.0392 12.1586H38.14V28.024H47.1651V14.7981H59.3237V45.4471H44.638V42.5625H56.4357V17.6827H50.0531V30.9086H35.2519V15.0433H24.8695L24.3929 36.2163L32.595 48.3317H50.3419L56.118 59.8702H73.0996V108.087L77.4317 114.476V65.6394H86.0958V68.524H80.3197V118.745L83.6843 123.707L103.15 123.923L89.7491 113.596ZM81.7637 56.25H63.7568V38.9423H74.587V43.2692H68.0889V51.9231H81.807L81.7637 56.25Z" fill="#3566AF"/>
</svg>
