<?xml version="1.0" standalone="no"?>
<!DOCTYPE svg PUBLIC "-//W3C//DTD SVG 20010904//EN"
 "http://www.w3.org/TR/2001/REC-SVG-20010904/DTD/svg10.dtd">
<svg version="1.0" xmlns="http://www.w3.org/2000/svg"
 width="1000.000000pt" height="1000.000000pt" viewBox="0 0 1000.000000 1000.000000"
 preserveAspectRatio="xMidYMid meet">
<metadata>
Created by potrace 1.11, written by Peter Selinger 2001-2013
</metadata>
<g transform="translate(0.000000,1000.000000) scale(0.100000,-0.100000)"
fill="#000000" stroke="none">
<path d="M390 9951 c0 -8 6 -22 14 -30 17 -20 300 -442 305 -456 2 -5 7 -12
10 -15 9 -7 171 -249 171 -255 0 -3 7 -13 14 -22 8 -10 23 -28 33 -41 18 -23
18 -14 18 305 l0 328 328 3 327 2 0 -815 c0 -807 1 -838 30 -865 3 -3 66 -95
140 -205 73 -110 137 -201 142 -203 4 -2 8 -8 8 -13 0 -5 26 -46 58 -92 31
-45 62 -90 67 -101 24 -47 32 -26 34 101 3 142 6 278 16 643 8 337 17 721 17
745 0 11 2 30 4 42 l4 21 640 0 c589 0 640 -1 640 -16 1 -10 1 -295 1 -634 l0
-618 27 -1 c128 -4 684 0 689 5 3 3 7 241 7 529 l1 522 485 0 485 0 2 -1205
c1 -663 0 -1214 -2 -1225 -4 -20 -11 -20 -587 -20 l-583 0 -3 113 c-2 85 0
112 10 113 7 1 216 3 463 4 248 1 455 3 460 4 7 1 10 339 10 993 l-1 993 -252
0 c-162 0 -253 -3 -255 -10 -2 -5 -3 -243 -3 -527 1 -456 -1 -518 -14 -519
-20 -1 -1141 -1 -1157 0 -10 1 -13 135 -13 634 l0 633 -402 -2 c-222 0 -410
-2 -418 -3 -13 -1 -15 -31 -15 -204 0 -111 -2 -206 -3 -210 -2 -5 -6 -113 -8
-240 -7 -383 -12 -602 -14 -607 -2 -5 -2 -38 0 -75 1 -11 -1 -94 -4 -185 l-5
-165 77 -115 c42 -63 79 -117 82 -120 3 -3 45 -66 94 -140 49 -74 93 -136 98
-138 4 -2 8 -9 8 -16 0 -7 8 -21 18 -32 10 -10 29 -37 42 -59 13 -22 27 -42
30 -45 3 -3 23 -32 45 -65 21 -33 42 -61 47 -63 4 -2 8 -8 8 -12 0 -12 88
-142 105 -155 9 -8 241 -11 717 -10 l705 0 34 -70 c19 -38 38 -73 42 -76 5 -3
8 -9 8 -13 -1 -5 260 -534 297 -601 6 -11 26 -51 45 -90 18 -38 40 -71 48 -71
8 -1 314 -2 680 -3 l666 -1 0 -1928 0 -1929 54 -79 c29 -43 57 -81 61 -82 5
-2 8 -8 8 -13 0 -9 36 -65 50 -79 3 -3 24 -34 47 -70 24 -36 46 -69 51 -75 4
-5 22 -31 40 -57 18 -27 34 -48 35 -48 1 0 2 872 1 1938 0 1065 2 1943 4 1950
3 9 82 12 348 12 l343 0 0 -114 c-1 -88 -4 -116 -15 -120 -7 -3 -16 -1 -20 5
-3 5 -11 6 -17 2 -7 -5 -50 -7 -97 -6 -90 3 -129 3 -197 0 -24 -1 -43 1 -43 6
0 4 -5 5 -11 1 -7 -4 -24 -7 -38 -6 l-26 1 0 -2008 0 -2007 35 -54 c19 -30 39
-60 45 -67 5 -7 16 -19 23 -27 6 -8 12 -18 12 -21 0 -4 11 -21 25 -39 14 -18
25 -36 25 -39 0 -4 7 -15 15 -24 8 -10 32 -43 53 -73 l38 -55 84 -1 c47 -1
346 -5 665 -8 319 -4 631 -8 693 -9 61 -1 112 -2 112 -1 0 1 -26 21 -57 45
-32 24 -60 47 -63 50 -3 3 -32 25 -65 50 -33 24 -62 46 -65 50 -3 3 -32 25
-65 50 -33 24 -73 56 -90 71 -16 16 -35 28 -42 28 -6 0 -13 3 -15 8 -3 7 -42
40 -98 82 -18 14 -78 60 -134 104 -56 43 -135 104 -176 134 -41 31 -77 59 -80
62 -3 3 -31 25 -62 49 l-58 43 0 2308 0 2308 -230 230 c-166 165 -230 236
-231 253 0 13 -1 267 -2 565 l0 540 -289 -1 -289 0 0 110 c0 60 0 118 0 128 0
9 0 46 0 82 0 36 0 73 0 83 1 75 0 196 -1 201 0 3 0 11 1 16 1 6 1 64 1 130
-1 66 -1 127 -1 135 1 29 0 193 -1 199 0 3 0 11 1 16 1 6 1 64 1 130 -1 66 -1
127 -1 135 2 81 -1 195 -5 201 -2 4 -1 10 3 12 13 8 3 154 -10 154 -7 0 -77 4
-157 8 -80 4 -182 8 -227 9 -46 0 -83 3 -83 6 0 5 -108 11 -170 9 -19 -1 -39
-1 -45 0 -114 9 -205 14 -450 25 -60 3 -162 8 -225 11 -63 4 -146 8 -185 10
-67 3 -259 13 -395 20 -36 2 -125 7 -198 10 -106 5 -137 9 -150 23 -10 9 -71
67 -136 127 -66 61 -138 128 -162 150 -82 77 -239 222 -286 264 -25 24 -68 64
-95 89 -27 26 -100 94 -163 152 -62 58 -136 126 -163 153 -28 26 -60 47 -71
48 -12 0 -632 1 -1379 2 -1167 2 -1357 0 -1357 -12z m5931 -3070 c8 -2 5 -328
-3 -336 -3 -4 -120 -7 -260 -7 l-253 -1 1 -339 c1 -186 4 -342 8 -345 4 -4
251 -7 549 -8 l542 0 -2 -155 c-1 -85 -2 -163 -2 -173 -1 -16 -11 -18 -96 -16
-53 1 -97 0 -99 -2 -3 -2 -57 -2 -121 1 -64 3 -118 3 -120 0 -2 -3 -164 -3
-360 0 -196 3 -358 3 -360 0 -2 -3 -66 -4 -144 -2 l-140 3 0 688 c-1 378 1
690 3 692 4 4 841 4 857 0z"/>
<path d="M3340 9960 c-22 -5 -25 -2 234 -242 28 -25 72 -66 97 -90 25 -24 92
-86 149 -138 57 -52 120 -111 141 -130 20 -19 81 -75 135 -125 53 -49 113
-105 132 -124 38 -37 35 -37 227 -45 61 -3 157 -8 215 -11 311 -16 360 -19
580 -29 58 -3 155 -8 215 -11 187 -10 275 -15 405 -21 69 -3 157 -7 195 -9
164 -9 345 -17 406 -19 36 -1 70 -6 77 -10 7 -4 12 -2 12 4 0 7 6 8 19 1 10
-6 21 -7 25 -4 8 8 7 52 7 -914 l1 -813 289 0 289 0 0 -593 0 -594 231 -230
232 -230 0 -2306 0 -2306 21 -18 c11 -10 57 -45 101 -77 44 -32 85 -64 90 -70
6 -6 64 -51 130 -101 66 -49 163 -123 215 -163 52 -41 108 -84 123 -96 16 -11
52 -39 80 -62 29 -22 117 -89 197 -150 80 -60 147 -111 150 -114 33 -33 45
-35 254 -37 116 -1 232 -4 258 -5 27 -2 44 0 41 6 -3 5 -1 6 5 2 17 -11 82
-13 82 -4 0 5 5 6 12 2 18 -12 189 -11 196 1 4 5 5 233 3 505 -2 272 -4 605
-5 740 l-1 245 -800 3 c-439 1 -801 4 -803 7 -2 2 -4 896 -4 1986 l0 1983
-289 288 -289 288 0 1507 0 1506 -32 32 c-18 17 -58 60 -88 94 -30 35 -68 77
-85 95 -16 18 -61 67 -100 110 -38 43 -86 95 -105 116 -19 20 -71 77 -115 125
-243 268 -225 252 -272 248 -20 -1 -42 -4 -49 -7 -6 -2 -17 0 -24 4 -8 5 -22
4 -32 -1 -12 -6 -18 -6 -18 0 0 7 -8 7 -24 1 -13 -5 -26 -6 -29 -4 -8 9 -70
10 -98 3 -15 -4 -32 -3 -40 1 -7 5 -21 4 -31 -1 -12 -6 -18 -6 -18 0 0 7 -8 7
-24 1 -13 -5 -26 -6 -29 -4 -8 9 -70 10 -98 3 -15 -4 -32 -3 -40 1 -7 5 -21 4
-31 -1 -12 -6 -18 -6 -18 0 0 7 -8 7 -24 1 -13 -5 -26 -6 -29 -4 -8 9 -70 10
-98 3 -15 -4 -32 -3 -40 1 -7 5 -21 4 -31 -1 -12 -6 -18 -6 -18 0 0 7 -8 7
-24 1 -13 -5 -26 -6 -29 -4 -8 9 -70 10 -98 3 -15 -4 -32 -3 -40 1 -7 5 -21 4
-31 -1 -12 -6 -18 -6 -18 0 0 7 -8 7 -24 1 -13 -5 -26 -6 -29 -4 -8 9 -70 10
-98 3 -15 -4 -32 -3 -40 1 -7 5 -21 4 -31 -1 -12 -6 -18 -6 -18 0 0 7 -8 7
-24 1 -13 -5 -26 -6 -29 -4 -8 9 -70 10 -98 3 -15 -4 -32 -3 -40 1 -7 5 -21 4
-31 -1 -12 -6 -18 -6 -18 0 0 6 -11 6 -28 2 -15 -5 -37 -5 -49 0 -12 4 -36 4
-52 -1 -17 -5 -33 -5 -35 -1 -5 7 -105 6 -113 -2 -2 -3 -18 -1 -34 3 -16 5
-42 5 -59 0 -16 -5 -32 -5 -34 -1 -5 7 -105 6 -113 -2 -2 -3 -18 -1 -34 3 -16
5 -42 5 -59 0 -16 -5 -32 -5 -34 -1 -5 7 -105 6 -113 -2 -2 -3 -18 -1 -34 3
-16 5 -42 5 -59 0 -16 -5 -32 -5 -34 -1 -5 7 -105 6 -113 -2 -2 -3 -18 -1 -34
3 -16 5 -42 5 -59 0 -16 -5 -32 -5 -34 -1 -5 7 -105 6 -113 -2 -2 -3 -18 -1
-34 3 -16 5 -42 5 -59 0 -16 -5 -32 -5 -34 -1 -5 7 -105 6 -113 -2 -2 -3 -17
-1 -33 3 -16 5 -45 5 -64 0 -20 -4 -36 -5 -36 -1 0 7 -78 8 -110 1z"/>
<path d="M7483 9961 c-22 -6 -22 -6 8 -41 40 -46 82 -92 203 -225 56 -60 106
-115 111 -121 6 -6 42 -47 82 -91 40 -43 81 -89 92 -101 18 -22 19 -57 19
-1518 l0 -1496 289 -289 289 -289 -1 -1798 c-1 -988 2 -1806 6 -1817 6 -19 16
-20 500 -21 272 -1 501 0 509 2 15 4 22 54 8 54 -4 0 -3 11 2 25 5 13 6 26 2
29 -4 2 -6 22 -5 43 2 21 3 52 3 68 0 17 0 39 0 50 1 11 1 25 1 30 -6 107 -5
135 4 135 7 0 7 3 0 8 -7 4 -11 163 -12 447 -3 927 -13 1916 -18 1925 -3 5 -1
11 5 15 6 4 8 11 4 16 -8 14 -14 888 -19 3019 l-4 1925 -22 12 c-13 6 -27 9
-33 5 -13 -8 -110 -7 -124 2 -6 3 -13 3 -16 -2 -5 -9 -53 -9 -62 1 -3 3 -16 2
-28 -2 -11 -5 -30 -6 -41 -4 -30 6 -134 5 -145 -2 -6 -3 -10 -2 -10 3 0 5 -18
6 -42 2 -24 -5 -50 -4 -60 1 -11 6 -18 6 -18 0 0 -5 -8 -7 -18 -4 -18 4 -18
-38 -18 -1130 1 -625 3 -1137 6 -1140 3 -3 37 -29 77 -58 81 -61 80 -60 252
-189 l126 -95 0 -2250 0 -2249 -228 -1 c-144 0 -228 4 -229 10 0 6 -2 960 -4
2120 -1 1161 -2 2120 -3 2133 -1 12 -5 22 -10 22 -9 0 -192 134 -300 218 -18
15 -41 31 -50 36 -9 5 -18 12 -21 15 -3 3 -22 19 -42 34 l-38 28 0 1250 0
1249 -22 1 c-13 1 -27 0 -33 -1 -10 -2 -29 -2 -80 3 -16 1 -42 -1 -56 -4 -15
-4 -32 -3 -40 1 -7 5 -21 4 -31 -1 -12 -6 -18 -6 -18 0 0 7 -8 7 -24 1 -13 -5
-26 -6 -29 -4 -8 9 -70 10 -98 3 -15 -4 -32 -3 -40 1 -7 5 -21 4 -31 -1 -12
-6 -18 -6 -18 0 0 7 -8 7 -24 1 -13 -5 -26 -6 -29 -4 -8 9 -70 10 -98 3 -15
-4 -32 -3 -40 1 -7 5 -21 4 -31 -1 -12 -6 -18 -6 -18 0 0 7 -8 7 -24 1 -13 -5
-26 -7 -29 -4 -8 8 -77 11 -77 3 0 -4 -15 -4 -32 0 -18 4 -43 5 -55 2z"/>
<path d="M1194 9532 c-5 -4 -9 -169 -8 -396 0 -335 3 -390 16 -400 8 -6 17
-16 19 -21 2 -6 38 -61 79 -122 l75 -111 5 46 c3 26 2 61 -1 77 -3 17 -3 39 1
49 3 10 3 41 0 68 -4 27 -4 51 -1 53 3 2 4 38 1 80 -3 42 -3 78 0 80 3 2 3 38
0 80 -3 42 -3 78 0 80 3 2 3 38 0 80 -3 42 -3 78 0 80 3 2 3 38 0 80 -3 42 -3
78 0 80 3 2 4 30 2 62 l-4 60 -87 1 c-48 0 -92 -3 -97 -6z"/>
<path d="M3303 5672 c-19 -3 -13 -16 66 -130 48 -70 96 -142 106 -159 11 -18
23 -33 28 -33 4 0 5 -4 2 -10 -3 -5 -1 -10 5 -10 6 0 14 -8 17 -17 4 -10 17
-31 30 -46 13 -16 23 -34 23 -41 0 -6 9 -18 20 -26 11 -8 20 -18 20 -23 0 -5
11 -23 25 -41 14 -18 25 -38 25 -44 0 -6 4 -12 8 -14 7 -3 249 -353 292 -423
8 -13 41 -63 74 -110 l58 -85 562 0 562 0 -1 -822 c-1 -724 1 -827 15 -853 8
-16 18 -32 21 -35 3 -3 52 -75 109 -160 57 -85 117 -172 133 -192 16 -21 25
-38 20 -38 -4 0 -3 -4 2 -8 15 -11 65 -79 65 -89 0 -4 11 -21 25 -36 14 -15
22 -27 18 -27 -4 0 -3 -4 2 -8 12 -9 55 -69 55 -77 0 -3 9 -15 20 -27 11 -12
20 -29 20 -37 0 -11 3 -12 8 -4 4 6 7 616 7 1355 l0 1343 -591 3 -592 2 -228
458 c-125 251 -229 459 -231 461 -3 5 -768 7 -800 3z"/>
<path d="M4190 4338 c0 -10 63 -102 72 -106 4 -2 8 -8 8 -13 0 -6 18 -34 40
-64 22 -30 40 -59 40 -65 0 -5 5 -10 10 -10 6 0 10 -7 10 -15 0 -8 5 -15 10
-15 6 0 10 -7 10 -15 0 -8 4 -15 9 -15 5 0 13 -9 16 -20 3 -11 12 -26 19 -32
11 -12 66 -93 240 -353 44 -66 83 -122 86 -125 7 -6 282 -414 295 -438 6 -9
13 -19 16 -22 3 -3 13 -16 22 -30 16 -23 17 14 17 660 l0 685 -460 0 c-253 0
-460 -3 -460 -7z"/>
</g>
</svg>
